<svg width="448" height="448" viewBox="0 0 448 448" fill="none" xmlns="http://www.w3.org/2000/svg">
<path d="M186.8 170.1L282 224.2L186.8 278.3V170.1ZM448 48V400C448 426.5 426.5 448 400 448H48C21.5 448 0 426.5 0 400V48C0 21.5 21.5 0 48 0H400C426.5 0 448 21.5 448 48ZM406 224.3C406 224.3 406 164.7 398.4 136.1C394.2 120.3 381.9 107.9 366.2 103.7C337.9 96 224 96 224 96C224 96 110.1 96 81.8 103.7C66.1 107.9 53.8 120.3 49.6 136.1C42 164.6 42 224.3 42 224.3C42 224.3 42 283.9 49.6 312.5C53.8 328.3 66.1 340.2 81.8 344.4C110.1 352 224 352 224 352C224 352 337.9 352 366.2 344.3C381.9 340.1 394.2 328.2 398.4 312.4C406 283.9 406 224.3 406 224.3Z" fill="white"/>
</svg>
